<svg width="148" height="148" viewBox="0 0 148 148" fill="none" xmlns="http://www.w3.org/2000/svg">
<circle cx="74" cy="74" r="74" fill="white"/>
<path d="M30.1508 104V43.8016H46.2038L67.8022 77.3668V43.8016H83.8551V104H67.8022L46.2038 70.4348V104H30.1508Z" fill="#222222"/>
<path d="M30.1508 104H26.7271V107.424H30.1508V104ZM30.1508 43.8016V40.3778H26.7271V43.8016H30.1508ZM46.2038 43.8016L49.0829 41.9489L48.072 40.3778H46.2038V43.8016ZM67.8022 77.3668L64.9231 79.2194L71.226 89.0144V77.3668H67.8022ZM67.8022 43.8016V40.3778H64.3785V43.8016H67.8022ZM83.8551 43.8016H87.2789V40.3778H83.8551V43.8016ZM83.8551 104V107.424H87.2789V104H83.8551ZM67.8022 104L64.9231 105.853L65.934 107.424H67.8022V104ZM46.2038 70.4348L49.0829 68.5821L42.78 58.7871V70.4348H46.2038ZM46.2038 104V107.424H49.6275V104H46.2038ZM33.5746 104V43.8016H26.7271V104H33.5746ZM30.1508 47.2253H46.2038V40.3778H30.1508V47.2253ZM43.3246 45.6542L64.9231 79.2194L70.6814 75.5141L49.0829 41.9489L43.3246 45.6542ZM71.226 77.3668V43.8016H64.3785V77.3668H71.226ZM67.8022 47.2253H83.8551V40.3778H67.8022V47.2253ZM80.4314 43.8016V104H87.2789V43.8016H80.4314ZM83.8551 100.576H67.8022V107.424H83.8551V100.576ZM70.6814 102.147L49.0829 68.5821L43.3246 72.2875L64.9231 105.853L70.6814 102.147ZM42.78 70.4348V104H49.6275V70.4348H42.78ZM46.2038 100.576H30.1508V107.424H46.2038V100.576Z" fill="white"/>
<path d="M88.354 104.184V43.9852H104.407V90.1008H123.816V104.184H88.354Z" fill="#ED392C"/>
<path d="M88.354 104.184H84.9302V107.607H88.354V104.184ZM88.354 43.9852V40.5614H84.9302V43.9852H88.354ZM104.407 43.9852H107.831V40.5614H104.407V43.9852ZM104.407 90.1008H100.983V93.5245H104.407V90.1008ZM123.816 90.1008H127.24V86.6771H123.816V90.1008ZM123.816 104.184V107.607H127.24V104.184H123.816ZM91.7777 104.184V43.9852H84.9302V104.184H91.7777ZM88.354 47.4089H104.407V40.5614H88.354V47.4089ZM100.983 43.9852V90.1008H107.831V43.9852H100.983ZM104.407 93.5245H123.816V86.6771H104.407V93.5245ZM120.393 90.1008V104.184H127.24V90.1008H120.393ZM123.816 100.76H88.354V107.607H123.816V100.76Z" fill="white"/>
</svg>
